<svg version="1.1" id="Layer_1" xmlns="http://www.w3.org/2000/svg" xmlns:xlink="http://www.w3.org/1999/xlink" x="0px" y="0px"
	 width="100%" viewBox="0 0 750 750" enable-background="new 0 0 750 750" xml:space="preserve">
<path fill="#000000" opacity="1.000000" stroke="none" 
	d="
M493.000000,751.000000 
	C328.666656,751.000000 164.833328,751.000000 1.000000,751.000000 
	C1.000000,501.000000 1.000000,251.000000 1.000000,1.000000 
	C251.000000,1.000000 501.000000,1.000000 751.000000,1.000000 
	C751.000000,251.000000 751.000000,501.000000 751.000000,751.000000 
	C665.166687,751.000000 579.333313,751.000000 493.000000,751.000000 
M332.591400,490.749725 
	C333.281555,490.160522 333.971741,489.571289 334.919922,488.541504 
	C334.985352,488.384369 335.050781,488.227264 335.819611,487.935638 
	C337.194031,485.875916 339.026917,483.981049 339.840088,481.719513 
	C341.209686,477.910309 341.550354,473.717651 343.031982,469.965942 
	C344.573700,466.062012 345.616333,462.653473 341.398926,459.933716 
	C338.307434,457.940094 333.725006,458.900452 331.954193,463.455353 
	C329.034729,470.964630 324.282990,472.941437 316.439728,471.383972 
	C314.952209,471.313599 313.464661,471.243225 311.262573,471.025848 
	C310.533234,471.008545 309.803864,470.991211 308.549744,470.539764 
	C306.745483,468.910156 304.599274,467.529907 303.197296,465.606995 
	C297.684601,458.045929 291.493683,458.282593 286.314728,465.987244 
	C284.849182,468.167511 281.972015,470.371002 279.488800,470.710632 
	C272.395752,471.680664 265.172424,471.697937 257.529358,471.989471 
	C257.529358,471.989471 257.059601,471.883453 257.043030,471.065002 
	C256.702606,469.450653 256.305908,467.845825 256.031006,466.220398 
	C254.432922,456.771423 246.717239,450.384949 237.252335,451.202179 
	C230.814301,451.758026 224.285019,452.391907 218.073639,454.037048 
	C213.968307,455.124359 209.774765,457.437531 206.648895,460.317749 
	C201.257095,465.285797 202.940216,474.915527 209.237061,478.862946 
	C203.312653,480.133392 200.507187,483.027161 200.917038,487.444763 
	C201.293976,491.507568 205.377426,494.141602 211.127563,493.809723 
	C217.483536,493.442841 222.291367,490.122375 226.497696,485.584259 
	C230.915466,480.817993 236.138901,478.870605 241.615906,481.176208 
	C242.590363,483.699829 243.258789,485.430908 244.243988,487.667542 
	C245.158844,488.397980 246.073685,489.128418 247.758774,490.006317 
	C249.475174,490.481323 251.180008,491.314941 252.909958,491.370789 
	C261.603394,491.651489 270.303375,491.729004 279.903961,491.872131 
	C287.321655,491.769501 294.740601,491.722290 302.156708,491.550659 
	C312.112274,491.320282 322.065613,490.993835 332.591400,490.749725 
M419.711426,461.229858 
	C417.164795,460.848145 414.618134,460.466431 411.449432,460.296936 
	C407.262421,459.988098 402.937622,460.237335 398.919312,459.245178 
	C392.168945,457.578522 385.613525,455.122253 378.425140,452.546936 
	C373.067047,450.151611 364.442993,453.744385 360.288788,460.261566 
	C356.861664,467.984192 357.821991,470.450867 365.537506,473.850189 
	C367.199310,474.582275 369.305786,474.996429 370.357178,476.262909 
	C371.991730,478.231873 374.219116,481.042694 373.854462,483.077179 
	C372.910980,488.341187 366.895630,490.861511 361.233215,489.234375 
	C355.788849,487.669952 353.356384,483.376678 354.639526,477.960602 
	C355.067566,476.153870 355.003662,474.230591 355.177399,472.212280 
	C347.056885,474.263641 343.406067,483.673889 348.184906,489.725861 
	C356.680542,500.484833 365.573456,500.839508 377.043060,493.135895 
	C381.154602,490.374390 383.830048,485.549255 387.486237,482.001221 
	C389.112976,480.422668 391.545074,479.674011 393.611633,478.548706 
	C394.260376,480.412445 395.359711,482.248810 395.475067,484.144989 
	C395.849762,490.305847 396.244873,490.792694 402.467285,491.003845 
	C404.273956,491.065186 406.199310,491.154022 407.845245,491.801849 
	C414.111542,494.268250 419.799805,492.521820 424.669250,488.850281 
	C426.669189,487.342407 428.644714,483.358215 428.026337,481.272980 
	C426.052063,474.615326 422.856323,468.319885 419.711426,461.229858 
M196.241257,373.830383 
	C195.363647,377.022949 194.503922,380.220520 193.604889,383.407074 
	C191.304642,391.560181 194.259918,399.182098 201.797409,401.995026 
	C207.526581,404.133087 209.741974,407.693451 210.103790,413.487427 
	C210.572281,420.990234 214.604233,425.098450 222.504654,426.659760 
	C227.775528,419.872131 233.366669,413.060120 238.494843,405.915833 
	C241.357269,401.928101 244.707809,401.108795 248.758865,403.034668 
	C251.405838,404.293091 253.085938,403.665833 254.835739,401.676971 
	C256.371216,399.931763 257.949158,398.154633 259.791840,396.768463 
	C261.645386,395.374023 263.848694,394.444489 266.720123,392.857239 
	C266.839478,395.571564 266.874146,396.694550 266.940674,397.815613 
	C267.283020,403.586517 272.670654,411.575409 277.522583,412.362518 
	C283.822571,413.384552 286.362732,408.331879 289.075806,403.964600 
	C292.754211,398.043304 296.484406,392.149780 299.970276,386.115997 
	C301.045288,384.255219 301.394592,381.975159 302.076172,379.887115 
	C301.579926,379.667938 301.083710,379.448792 300.587494,379.229645 
	C296.455261,383.090454 292.323029,386.951294 287.969086,391.019257 
	C285.654266,384.406189 285.846466,384.503326 288.321533,379.605743 
	C289.872559,376.536682 291.115906,373.201630 291.825928,369.843964 
	C292.890381,364.810089 290.361481,360.194611 286.136444,358.291870 
	C280.984161,355.971558 280.539612,353.786957 283.512024,348.903534 
	C289.633453,338.846649 295.872375,328.836060 301.422211,318.463593 
	C306.862732,308.295349 304.640045,298.533569 296.706635,292.598846 
	C284.153809,295.407318 278.644440,305.272980 273.362183,315.277771 
	C268.721344,324.067719 264.508606,333.092743 259.593506,341.721588 
	C258.532471,343.584320 254.426956,345.746185 253.199020,345.074280 
	C250.281143,343.477631 248.769028,340.259247 251.311050,336.624969 
	C253.111786,334.050446 254.489532,331.183685 256.223145,328.557678 
	C258.334778,325.358978 257.159210,323.336365 254.187500,321.680756 
	C250.137375,319.424347 244.861847,321.292755 241.553665,326.464508 
	C237.709259,332.474548 234.023163,338.586212 230.293808,344.669342 
	C228.012161,348.391083 223.410355,349.392334 219.766495,346.915131 
	C215.107849,343.748138 214.501144,340.825470 217.542664,336.613586 
	C218.416702,335.403229 219.152496,334.085052 219.871674,332.772430 
	C221.932434,329.011230 220.354370,326.194855 216.281876,325.044250 
	C211.381241,323.659668 211.419189,328.043823 209.351776,330.145355 
	C201.059509,338.574463 196.007462,349.080658 190.244812,359.151001 
	C186.181442,366.251831 181.930756,373.245514 177.763687,380.287018 
	C177.001984,380.092438 176.240265,379.897858 175.478561,379.703278 
	C175.712036,375.591492 175.949905,371.479919 176.177979,367.367828 
	C176.556503,360.542999 181.207581,354.420624 179.848602,347.433289 
	C179.282516,344.522705 177.686707,340.201172 175.614395,339.556061 
	C172.129166,338.471130 168.580002,340.767456 166.346024,344.406586 
	C161.953796,351.561462 157.471664,358.679779 152.614578,365.520630 
	C150.889343,367.950500 147.141068,371.655518 145.740921,371.111542 
	C140.968628,369.257477 143.355927,364.793579 144.010925,361.147766 
	C145.672867,351.897156 147.557190,342.674591 148.809692,333.367706 
	C149.384979,329.093018 144.033005,323.872101 140.304810,324.094391 
	C131.739304,324.605133 127.884071,327.840179 128.380280,334.228607 
	C128.508041,335.873352 129.188339,337.476105 129.307281,339.120392 
	C130.140350,350.636993 131.201736,362.056671 127.764870,373.520020 
	C124.530968,384.306335 122.343231,395.413605 119.891205,406.423309 
	C118.971642,410.552155 120.748764,413.369965 124.875137,414.926086 
	C129.186722,416.552063 130.982452,413.564270 132.835831,410.917633 
	C134.433212,408.636505 135.457245,405.963287 136.908493,403.568726 
	C141.283340,396.350250 145.622849,389.104218 150.256088,382.052887 
	C151.377045,380.346924 153.577118,379.350006 155.280960,378.027069 
	C155.731949,378.366791 156.182938,378.706543 156.633926,379.046265 
	C156.710709,380.637177 156.822464,382.227325 156.858398,383.819153 
	C157.051743,392.383453 157.048859,400.957336 157.492416,409.508301 
	C157.676132,413.049988 159.607788,415.608582 163.675720,416.083008 
	C167.653381,416.546936 169.903931,414.790588 171.456345,411.354858 
	C174.877731,403.782898 178.195129,396.149200 181.996445,388.768066 
	C185.320847,382.312897 189.248688,376.168549 193.169861,370.509399 
	C194.191330,371.342804 195.212799,372.176208 196.241257,373.830383 
M541.424805,483.767975 
	C541.175537,485.545288 541.537476,487.816376 540.570251,489.013580 
	C536.580627,493.951874 539.138245,497.083984 542.897888,500.325287 
	C551.596619,507.824707 557.881409,517.197571 563.321655,527.192688 
	C567.541504,534.945740 571.790466,542.683472 575.935486,550.476379 
	C577.223999,552.898865 578.604858,554.225342 581.760925,553.851624 
	C587.007751,553.230469 592.337952,553.348633 597.625671,553.031494 
	C608.051636,552.406311 607.806152,552.284546 611.140503,542.921448 
	C619.623413,519.100891 628.292114,495.331421 640.233093,472.956238 
	C656.124207,443.179230 671.987244,413.384064 688.237976,383.803009 
	C707.957825,347.907104 722.669434,310.419495 727.962158,269.471466 
	C731.092834,245.251221 730.692688,221.393570 724.887939,197.627869 
	C721.969666,185.679718 715.842285,175.188599 710.725098,164.196686 
	C703.000305,147.603592 689.968750,136.364639 674.824585,127.235535 
	C663.786377,120.581566 651.670654,116.939636 638.918518,114.456596 
	C610.146240,108.854187 583.120117,111.232986 558.106018,127.853561 
	C547.512268,134.892532 539.227966,144.083374 531.464478,153.878006 
	C521.940002,165.894379 515.836548,179.728165 510.623901,194.004807 
	C509.636475,196.709229 510.399811,198.396408 513.287048,199.322388 
	C515.967773,200.182159 518.729004,201.124619 521.072876,202.626678 
	C525.033081,205.164505 527.153564,203.261063 528.313721,199.852905 
	C532.560974,187.375793 539.678528,176.574112 547.522400,166.182175 
	C563.033325,145.632690 582.965881,133.256393 609.407593,133.950714 
	C616.452576,134.135681 623.755432,135.163544 630.406006,137.395264 
	C642.610474,141.490677 653.387878,148.202560 663.047852,157.048462 
	C673.301392,166.437912 681.118103,177.644806 687.664368,189.462494 
	C695.107910,202.899933 697.832214,218.239395 699.949280,233.411514 
	C701.810120,246.747391 702.741638,260.178223 700.115723,273.585754 
	C698.422241,282.232422 697.960632,291.309265 694.988770,299.481232 
	C686.076721,323.987793 676.721741,348.364716 666.538818,372.367615 
	C658.495239,391.327728 649.061462,409.703369 640.080200,428.258759 
	C631.454285,446.079956 622.206970,463.611847 613.995117,481.618530 
	C606.843201,497.300995 600.746033,513.464905 594.204529,529.425049 
	C593.102478,532.114014 592.110413,534.848083 590.637390,538.680237 
	C588.047913,535.572205 586.016907,533.444153 584.337524,531.067505 
	C575.214111,518.155640 566.341309,505.062805 557.022583,492.294769 
	C553.746277,487.805786 549.450256,484.061096 545.405579,479.341461 
	C546.328186,474.234375 547.421997,469.151062 548.135620,464.014954 
	C549.383728,455.031860 537.745117,447.581604 528.548157,452.305145 
	C525.987671,453.620239 523.808411,453.630310 521.319092,452.564606 
	C515.924622,450.255188 508.128387,451.121124 505.307159,454.673645 
	C501.276947,459.748596 499.483887,466.015045 502.567505,471.648987 
	C507.271423,480.243317 513.811584,487.698120 523.029541,491.872803 
	C524.917114,492.727631 528.147278,492.215851 530.047852,491.111176 
	C534.000916,488.813477 537.478088,485.697113 541.424805,483.767975 
M408.580963,314.672455 
	C402.106903,323.177734 397.236908,332.451874 394.464783,343.392151 
	C392.238708,346.744751 390.012665,350.097351 387.767426,353.478821 
	C385.064941,349.051025 382.533630,345.173737 380.339844,341.114075 
	C379.810242,340.134064 379.965118,338.305359 380.543884,337.286469 
	C383.345734,332.353973 380.509460,328.277863 377.746460,325.308258 
	C371.013092,318.071320 358.504395,317.753784 351.750763,326.870361 
	C343.590485,337.885651 336.008331,349.412567 329.174805,361.292603 
	C325.707672,367.320221 324.018677,374.503326 322.265564,381.353363 
	C319.574127,391.869720 323.097168,400.523041 331.337891,405.659515 
	C335.093597,408.000397 338.696686,407.886719 341.677460,404.581543 
	C344.211029,401.772278 346.211639,398.488464 348.664703,395.598511 
	C350.447235,393.498444 352.583221,391.698425 354.561646,389.764648 
	C355.188965,390.060150 355.816315,390.355652 356.443634,390.651154 
	C356.628967,394.382233 356.860779,398.111725 356.989868,401.844757 
	C357.246948,409.280670 359.621796,415.404266 366.614716,419.215088 
	C369.146515,420.594849 370.946808,420.756287 373.235840,418.874115 
	C378.283020,414.724304 382.099823,408.291870 390.178101,409.406982 
	C390.901672,409.506866 391.818604,408.385284 392.609589,407.783417 
	C394.735382,406.165863 396.380829,406.522552 398.840820,407.845947 
	C401.235962,409.134491 404.839905,409.519440 407.435486,408.730194 
	C410.268036,407.868896 412.911865,405.532166 414.994965,403.251312 
	C418.553101,399.355469 422.063110,399.063477 426.487030,401.609924 
	C430.466736,403.900665 434.086761,404.079498 437.185883,399.466431 
	C439.351532,396.242889 442.597595,393.745178 445.361084,390.923279 
	C445.804993,391.183868 446.248932,391.444458 446.692871,391.705048 
	C446.872284,393.631958 446.920197,395.582458 447.261139,397.480347 
	C447.807739,400.523010 448.181915,403.671875 449.280609,406.524963 
	C451.852173,413.202728 460.495575,414.871674 465.511475,409.890228 
	C467.521179,407.894348 469.304596,405.470581 471.687103,404.110840 
	C473.734833,402.942169 477.175476,401.833405 478.788177,402.774689 
	C482.230133,404.783722 488.175201,405.289551 486.944855,411.739655 
	C485.242096,420.666321 483.844574,429.669617 481.670197,438.480621 
	C480.481689,443.296631 481.826172,447.123871 484.540131,450.499542 
	C487.669159,454.391479 494.233185,452.936462 495.775848,448.231415 
	C496.439117,446.208313 496.912415,444.010254 496.895172,441.896423 
	C496.823730,433.159302 498.308868,424.815338 502.130493,416.890381 
	C504.504486,411.967285 506.519531,410.534119 511.488464,412.852264 
	C517.135437,415.486725 520.811584,413.868164 524.267761,409.420258 
	C525.990906,407.202698 528.113464,405.291290 530.091064,403.276550 
	C537.047119,396.190033 545.648254,391.913635 554.819519,387.877472 
	C556.615967,392.556274 556.719177,396.020203 553.408875,399.119659 
	C550.493896,401.848999 547.695557,404.709839 544.948914,407.610321 
	C540.960632,411.821960 539.823792,419.106903 542.468811,422.791382 
	C545.827759,427.470276 553.867310,429.878510 558.987915,427.374573 
	C567.985840,422.974640 573.335388,415.984100 574.037109,405.654846 
	C574.171997,403.669403 575.299316,401.193634 576.807373,400.087738 
	C577.595703,399.509644 580.823486,400.933258 581.888733,402.287292 
	C586.466003,408.105499 591.756165,408.346619 597.813049,405.180939 
	C601.955261,403.016022 604.869629,404.339233 607.598694,407.962006 
	C612.776550,414.835663 619.167053,415.164642 624.647888,408.470276 
	C629.441528,402.615234 633.695129,396.263031 637.641174,389.797150 
	C639.143188,387.335999 639.226990,383.963104 639.726196,380.967255 
	C639.857056,380.181946 639.272766,378.648743 638.755798,378.521698 
	C637.826599,378.293365 636.537048,378.612701 635.684143,379.154022 
	C632.270142,381.320923 628.966064,383.661072 625.259644,386.183228 
	C625.171326,385.022614 624.916382,384.349945 625.133118,384.118011 
	C628.443909,380.574585 627.138367,376.318695 626.840210,372.322876 
	C626.616760,369.329224 625.286316,367.276245 621.556763,367.042267 
	C618.567932,366.854736 615.546509,365.668121 612.734131,364.468536 
	C603.853210,360.680542 598.373596,359.487610 592.026184,369.238251 
	C589.316650,373.400574 586.523071,377.653503 583.005432,381.083435 
	C581.225159,382.819336 577.254517,384.066162 575.178528,383.245697 
	C573.115051,382.430206 571.523438,378.893951 570.938354,376.279266 
	C570.310669,373.474365 571.521729,370.295685 571.128784,367.388458 
	C570.826782,365.154541 569.772583,362.467407 568.120422,361.162689 
	C566.986755,360.267487 563.655823,360.682800 562.357666,361.768433 
	C559.489990,364.166595 557.272705,367.346954 554.816772,370.230927 
	C553.738403,371.497192 552.725403,372.819061 552.219604,373.448090 
	C548.470642,368.135132 545.459351,362.919006 541.520142,358.537018 
	C537.092834,353.612152 532.490234,354.529785 528.775574,360.228790 
	C524.887329,366.194122 521.389160,366.788910 515.909485,362.389526 
	C515.262878,361.870422 514.753296,361.179352 514.101990,360.667633 
	C509.780670,357.272644 505.703430,358.881073 503.959778,364.024048 
	C501.610413,370.953644 498.360504,377.410858 489.278229,380.354706 
	C490.833344,374.682465 491.969757,369.789703 493.546478,365.043152 
	C494.641174,361.747528 496.179718,358.566956 497.816254,355.492676 
	C499.513214,352.304871 498.757782,349.427734 496.444580,347.373199 
	C494.899597,346.000946 491.602051,344.552979 490.387604,345.287231 
	C487.917542,346.780579 485.381775,349.439209 484.557190,352.133087 
	C482.390106,359.213013 480.890717,366.452179 474.379364,372.183960 
	C473.450287,370.149597 472.365448,368.646484 472.091553,367.007874 
	C471.327881,362.438965 469.448242,358.931549 464.983337,356.952332 
	C461.409515,355.368103 462.058075,352.524017 463.631775,349.880432 
	C467.281830,343.748779 471.097351,337.715942 474.787903,331.608063 
	C479.317963,324.110748 483.807648,316.682373 484.649750,307.555176 
	C485.283600,300.685272 480.984406,293.570221 475.441589,294.308929 
	C470.465179,294.972137 465.472565,296.617493 462.642334,301.154602 
	C457.391327,309.572327 452.216522,318.070007 447.606079,326.847504 
	C439.959473,341.405334 433.215302,356.348083 429.517548,372.541840 
	C428.917358,375.170227 425.788483,377.221191 423.571686,379.842712 
	C418.240479,371.474213 414.364746,370.744720 407.375000,375.791687 
	C407.104919,375.986694 406.872437,376.274323 406.573212,376.381744 
	C404.896515,376.983978 403.204681,377.544098 401.518036,378.118561 
	C401.672913,375.925995 401.097809,373.275208 402.128815,371.632538 
	C404.564331,367.752197 408.046295,364.540100 410.598999,360.719635 
	C416.943726,351.223785 423.597870,341.855835 428.968903,331.816528 
	C432.433838,325.340057 432.869141,317.713165 429.791779,310.507355 
	C427.533600,305.219727 421.744537,301.903137 417.854340,304.520660 
	C414.336578,306.887543 411.929352,310.904938 408.580963,314.672455 
M372.957306,285.327209 
	C372.199738,290.682434 371.036774,296.020538 370.809357,301.398193 
	C370.617920,305.924927 372.590393,306.796844 376.841980,305.245972 
	C378.495941,304.642700 380.383759,304.155884 382.095032,304.324951 
	C389.730194,305.079254 389.951752,304.862030 390.385925,296.946442 
	C391.617981,274.483887 399.295227,255.255539 418.032135,241.417221 
	C432.435089,230.779816 448.372284,224.180801 466.239594,222.945679 
	C474.655762,222.363892 483.228882,222.197220 491.593231,223.107300 
	C509.005249,225.001846 524.958008,230.690933 537.332703,243.963303 
	C538.272034,244.970734 540.049316,246.478989 540.724670,246.174484 
	C541.997314,245.600677 543.124329,244.014511 543.652710,242.602524 
	C545.628113,237.323959 547.298828,231.932358 549.159912,226.609711 
	C550.256958,223.472122 549.556152,221.227570 546.565430,219.490021 
	C535.800354,213.235748 525.113281,207.302979 512.626526,204.444229 
	C495.467529,200.515778 478.440063,200.362457 461.263062,202.767548 
	C444.089020,205.172226 428.139740,211.401428 413.365021,220.298279 
	C407.156586,224.036789 400.926300,228.423615 396.214233,233.830261 
	C383.590698,248.314514 376.364807,265.585114 372.957306,285.327209 
M493.607330,488.063263 
	C494.216431,486.884216 495.006866,485.762695 495.402435,484.515900 
	C496.893890,479.815186 493.387756,472.034943 489.539215,472.185608 
	C484.748322,472.373077 483.739380,470.160278 483.442993,466.010193 
	C483.279755,463.724670 481.585724,459.671265 480.602264,459.677399 
	C477.772369,459.695099 474.669189,460.942474 472.230164,462.550995 
	C470.633453,463.604065 470.326385,466.449707 468.858215,467.902954 
	C467.120972,469.622528 464.829956,471.711700 462.648285,471.873047 
	C456.891052,472.298859 451.035614,472.068237 445.270782,471.538391 
	C439.054077,470.966980 434.867523,474.593353 434.314026,481.767975 
	C433.812653,488.266174 436.677673,491.149658 443.300659,491.306519 
	C451.170166,491.492828 459.033112,491.954712 467.549774,492.325562 
	C466.822266,494.354401 466.589233,495.120819 466.277344,495.853638 
	C464.909210,499.068176 464.878265,502.482635 468.089722,504.107056 
	C470.356049,505.253418 474.476227,505.919830 476.064453,504.657013 
	C482.158325,499.811829 487.564362,494.101501 493.607330,488.063263 
z"/>
<path fill="#621314" opacity="1.000000" stroke="none" 
	d="
M409.032410,314.194519 
	C411.929352,310.904938 414.336578,306.887543 417.854340,304.520660 
	C421.744537,301.903137 427.533600,305.219727 429.791779,310.507355 
	C432.869141,317.713165 432.433838,325.340057 428.968903,331.816528 
	C423.597870,341.855835 416.943726,351.223785 410.598999,360.719635 
	C408.046295,364.540100 404.564331,367.752197 402.128815,371.632538 
	C401.097809,373.275208 401.672913,375.925995 401.518005,378.118561 
	C403.204681,377.544098 404.896515,376.983978 406.573212,376.381744 
	C406.872437,376.274323 407.104919,375.986694 407.375000,375.791687 
	C414.364746,370.744720 418.240479,371.474213 423.571686,379.842712 
	C425.788483,377.221191 428.917358,375.170227 429.517548,372.541840 
	C433.215302,356.348083 439.959473,341.405334 447.606079,326.847504 
	C452.216522,318.070007 457.391327,309.572327 462.642334,301.154602 
	C465.472565,296.617493 470.465179,294.972137 475.441589,294.308929 
	C480.984406,293.570221 485.283600,300.685272 484.649750,307.555176 
	C483.807648,316.682373 479.317963,324.110748 474.787903,331.608063 
	C471.097351,337.715942 467.281830,343.748779 463.631775,349.880432 
	C462.058075,352.524017 461.409515,355.368103 464.983337,356.952332 
	C469.448242,358.931549 471.327881,362.438965 472.091553,367.007874 
	C472.365448,368.646484 473.450287,370.149597 474.379364,372.183960 
	C480.890717,366.452179 482.390106,359.213013 484.557190,352.133087 
	C485.381775,349.439209 487.917542,346.780579 490.387604,345.287231 
	C491.602051,344.552979 494.899597,346.000946 496.444580,347.373199 
	C498.757782,349.427734 499.513214,352.304871 497.816254,355.492676 
	C496.179718,358.566956 494.641174,361.747528 493.546478,365.043152 
	C491.969757,369.789703 490.833344,374.682465 489.278229,380.354706 
	C498.360504,377.410858 501.610413,370.953644 503.959778,364.024048 
	C505.703430,358.881073 509.780670,357.272644 514.101990,360.667633 
	C514.753296,361.179352 515.262878,361.870422 515.909485,362.389526 
	C521.389160,366.788910 524.887329,366.194122 528.775574,360.228790 
	C532.490234,354.529785 537.092834,353.612152 541.520142,358.537018 
	C545.459351,362.919006 548.470642,368.135132 552.219604,373.448090 
	C552.725403,372.819061 553.738403,371.497192 554.816772,370.230927 
	C557.272705,367.346954 559.489990,364.166595 562.357666,361.768433 
	C563.655823,360.682800 566.986755,360.267487 568.120422,361.162689 
	C569.772583,362.467407 570.826782,365.154541 571.128784,367.388458 
	C571.521729,370.295685 570.310669,373.474365 570.938354,376.279266 
	C571.523438,378.893951 573.115051,382.430206 575.178528,383.245697 
	C577.254517,384.066162 581.225159,382.819336 583.005432,381.083435 
	C586.523071,377.653503 589.316650,373.400574 592.026184,369.238251 
	C598.373596,359.487610 603.853210,360.680542 612.734131,364.468536 
	C615.546509,365.668121 618.567932,366.854736 621.556763,367.042267 
	C625.286316,367.276245 626.616760,369.329224 626.840210,372.322876 
	C627.138367,376.318695 628.443909,380.574585 625.133118,384.118011 
	C624.916382,384.349945 625.171326,385.022614 625.259644,386.183228 
	C628.966064,383.661072 632.270142,381.320923 635.684143,379.154022 
	C636.537048,378.612701 637.826599,378.293365 638.755798,378.521698 
	C639.272766,378.648743 639.857056,380.181946 639.726196,380.967255 
	C639.226990,383.963104 639.143188,387.335999 637.641174,389.797150 
	C633.695129,396.263031 629.441528,402.615234 624.647888,408.470276 
	C619.167053,415.164642 612.776550,414.835663 607.598694,407.962006 
	C604.869629,404.339233 601.955261,403.016022 597.813049,405.180939 
	C591.756165,408.346619 586.466003,408.105499 581.888733,402.287292 
	C580.823486,400.933258 577.595703,399.509644 576.807373,400.087738 
	C575.299316,401.193634 574.171997,403.669403 574.037109,405.654846 
	C573.335388,415.984100 567.985840,422.974640 558.987915,427.374573 
	C553.867310,429.878510 545.827759,427.470276 542.468811,422.791382 
	C539.823792,419.106903 540.960632,411.821960 544.948914,407.610321 
	C547.695557,404.709839 550.493896,401.848999 553.408875,399.119659 
	C556.719177,396.020203 556.615967,392.556274 554.819519,387.877472 
	C545.648254,391.913635 537.047119,396.190033 530.091064,403.276550 
	C528.113464,405.291290 525.990906,407.202698 524.267761,409.420258 
	C520.811584,413.868164 517.135437,415.486725 511.488464,412.852264 
	C506.519531,410.534119 504.504486,411.967285 502.130493,416.890381 
	C498.308868,424.815338 496.823730,433.159302 496.895172,441.896423 
	C496.912415,444.010254 496.439117,446.208313 495.775848,448.231415 
	C494.233185,452.936462 487.669159,454.391479 484.540131,450.499542 
	C481.826172,447.123871 480.481689,443.296631 481.670197,438.480621 
	C483.844574,429.669617 485.242096,420.666321 486.944855,411.739655 
	C488.175201,405.289551 482.230133,404.783722 478.788177,402.774689 
	C477.175476,401.833405 473.734833,402.942169 471.687103,404.110840 
	C469.304596,405.470581 467.521179,407.894348 465.511475,409.890228 
	C460.495575,414.871674 451.852173,413.202728 449.280609,406.524963 
	C448.181915,403.671875 447.807739,400.523010 447.261139,397.480347 
	C446.920197,395.582458 446.872284,393.631958 446.692871,391.705048 
	C446.248932,391.444458 445.804993,391.183868 445.361084,390.923279 
	C442.597595,393.745178 439.351532,396.242889 437.185883,399.466431 
	C434.086761,404.079498 430.466736,403.900665 426.487030,401.609924 
	C422.063110,399.063477 418.553101,399.355469 414.994965,403.251312 
	C412.911865,405.532166 410.268036,407.868896 407.435486,408.730194 
	C404.839905,409.519440 401.235962,409.134491 398.840820,407.845947 
	C396.380829,406.522552 394.735382,406.165863 392.609589,407.783417 
	C391.818604,408.385284 390.901672,409.506866 390.178101,409.406982 
	C382.099823,408.291870 378.283020,414.724304 373.235840,418.874115 
	C370.946808,420.756287 369.146515,420.594849 366.614716,419.215088 
	C359.621796,415.404266 357.246948,409.280670 356.989868,401.844757 
	C356.860779,398.111725 356.628967,394.382233 356.443634,390.651154 
	C355.816315,390.355652 355.188965,390.060150 354.561646,389.764648 
	C352.583221,391.698425 350.447235,393.498444 348.664703,395.598511 
	C346.211639,398.488464 344.211029,401.772278 341.677460,404.581543 
	C338.696686,407.886719 335.093597,408.000397 331.337891,405.659515 
	C323.097168,400.523041 319.574127,391.869720 322.265564,381.353363 
	C324.018677,374.503326 325.707672,367.320221 329.174805,361.292603 
	C336.008331,349.412567 343.590485,337.885651 351.750763,326.870361 
	C358.504395,317.753784 371.013092,318.071320 377.746460,325.308258 
	C380.509460,328.277863 383.345734,332.353973 380.543884,337.286469 
	C379.965118,338.305359 379.810242,340.134064 380.339844,341.114075 
	C382.533630,345.173737 385.064941,349.051025 387.767426,353.478821 
	C390.012665,350.097351 392.238708,346.744751 394.990662,343.239380 
	C396.823517,341.942322 398.505066,341.024506 399.361572,339.607880 
	C401.313751,336.378906 402.717651,332.822418 404.606445,329.550354 
	C407.595215,324.372742 410.798706,319.319092 413.922607,314.194519 
	C412.184998,314.194519 410.608704,314.194519 409.032410,314.194519 
M417.775940,322.792145 
	C415.498657,328.378448 413.093842,333.918396 411.035431,339.584198 
	C410.532654,340.968079 411.165375,342.764435 411.276001,344.371124 
	C413.135956,343.833893 415.719971,343.877625 416.710632,342.642944 
	C419.032227,339.749481 420.590607,336.243652 422.921234,332.481445 
	C423.244781,326.758545 423.568329,321.035645 423.916412,314.878784 
	C418.804230,317.078583 418.759735,317.140564 417.775940,322.792145 
M468.431213,311.722595 
	C466.753510,312.881592 464.377502,313.664642 463.516754,315.263458 
	C459.368164,322.969147 455.526733,330.847107 451.799103,338.768768 
	C450.536896,341.451111 449.928894,344.441254 449.021912,347.290741 
	C449.362305,347.416229 449.702698,347.541718 450.043091,347.667206 
	C451.663391,346.101044 453.283661,344.534912 455.616730,342.855408 
	C459.781647,337.688232 464.278229,332.738525 467.899719,327.215057 
	C468.922394,325.655273 467.384521,322.416626 467.097229,319.272217 
	C467.403900,318.186279 467.710541,317.100372 468.702698,315.943939 
	C469.590271,315.259766 470.477844,314.575623 471.365387,313.891449 
	C470.581268,313.263947 469.797119,312.636475 468.431213,311.722595 
M341.780884,373.452545 
	C341.176666,375.508148 339.924316,377.633789 340.136993,379.601074 
	C340.386810,381.911194 341.909210,384.083710 342.879700,386.315887 
	C344.631714,385.134583 346.886230,384.317963 348.052246,382.711365 
	C354.469116,373.869904 360.816315,364.962860 366.762817,355.802643 
	C369.063171,352.259064 371.029572,348.109802 371.649200,344.009918 
	C372.021423,341.547272 370.045929,338.049377 368.033600,336.213867 
	C367.122803,335.383118 362.924164,336.814880 361.328857,338.364655 
	C358.295837,341.311035 355.571320,344.821533 353.598785,348.561890 
	C349.437592,356.452179 345.843933,364.641724 341.780884,373.452545 
M381.079224,381.140961 
	C380.741119,373.928070 382.201599,367.002167 385.556915,360.708344 
	C387.421967,357.210022 385.929413,355.973969 382.806152,354.274536 
	C381.981445,355.682251 380.965851,356.933380 380.463684,358.364624 
	C379.039795,362.423096 377.625793,366.504517 376.569489,370.668610 
	C374.129486,380.287384 371.730591,389.925140 369.748138,399.643555 
	C369.389282,401.402771 371.093658,403.582825 371.845490,405.568604 
	C373.660370,403.987823 376.520721,402.716248 377.096588,400.769043 
	C378.919250,394.606018 379.887817,388.190369 381.079224,381.140961 
M515.066040,390.517487 
	C508.438049,397.075195 505.770142,402.994171 508.227600,407.016907 
	C513.988586,397.209930 525.027649,391.734100 527.771912,379.705109 
	C526.052551,380.328949 524.564758,381.274384 523.302185,382.459717 
	C520.676270,384.924927 518.169800,387.517212 515.066040,390.517487 
M406.597229,383.938416 
	C402.984222,388.105011 399.587830,392.356262 400.317200,398.735809 
	C406.826782,395.744476 409.510376,392.032135 411.523285,383.307953 
	C409.963409,383.423462 408.611511,383.523590 406.597229,383.938416 
z"/>
<path fill="#32150F" opacity="1.000000" stroke="none" 
	d="
M545.619873,479.976562 
	C549.450256,484.061096 553.746277,487.805786 557.022583,492.294769 
	C566.341309,505.062805 575.214111,518.155640 584.337524,531.067505 
	C586.016907,533.444153 588.047913,535.572205 590.637390,538.680237 
	C592.110413,534.848083 593.102478,532.114014 594.204529,529.425049 
	C600.746033,513.464905 606.843201,497.300995 613.995117,481.618530 
	C622.206970,463.611847 631.454285,446.079956 640.080200,428.258759 
	C649.061462,409.703369 658.495239,391.327728 666.538818,372.367615 
	C676.721741,348.364716 686.076721,323.987793 694.988770,299.481232 
	C697.960632,291.309265 698.422241,282.232422 700.115723,273.585754 
	C702.741638,260.178223 701.810120,246.747391 699.949280,233.411514 
	C697.832214,218.239395 695.107910,202.899933 687.664368,189.462494 
	C681.118103,177.644806 673.301392,166.437912 663.047852,157.048462 
	C653.387878,148.202560 642.610474,141.490677 630.406006,137.395264 
	C623.755432,135.163544 616.452576,134.135681 609.407593,133.950714 
	C582.965881,133.256393 563.033325,145.632690 547.522400,166.182175 
	C539.678528,176.574112 532.560974,187.375793 528.313721,199.852905 
	C527.153564,203.261063 525.033081,205.164505 521.072876,202.626678 
	C518.729004,201.124619 515.967773,200.182159 513.287048,199.322388 
	C510.399811,198.396408 509.636475,196.709229 510.623901,194.004807 
	C515.836548,179.728165 521.940002,165.894379 531.464478,153.878006 
	C539.227966,144.083374 547.512268,134.892532 558.106018,127.853561 
	C583.120117,111.232986 610.146240,108.854187 638.918518,114.456596 
	C651.670654,116.939636 663.786377,120.581566 674.824585,127.235535 
	C689.968750,136.364639 703.000305,147.603592 710.725098,164.196686 
	C715.842285,175.188599 721.969666,185.679718 724.887939,197.627869 
	C730.692688,221.393570 731.092834,245.251221 727.962158,269.471466 
	C722.669434,310.419495 707.957825,347.907104 688.237976,383.803009 
	C671.987244,413.384064 656.124207,443.179230 640.233093,472.956238 
	C628.292114,495.331421 619.623413,519.100891 611.140503,542.921448 
	C607.806152,552.284546 608.051636,552.406311 597.625671,553.031494 
	C592.337952,553.348633 587.007751,553.230469 581.760925,553.851624 
	C578.604858,554.225342 577.223999,552.898865 575.935486,550.476379 
	C571.790466,542.683472 567.541504,534.945740 563.321655,527.192688 
	C557.881409,517.197571 551.596619,507.824707 542.897888,500.325287 
	C539.138245,497.083984 536.580627,493.951874 540.570251,489.013580 
	C541.537476,487.816376 541.175537,485.545288 541.506226,483.401154 
	C541.587708,483.034332 541.513977,483.482269 542.047363,483.622559 
	C542.942383,483.828918 543.304016,483.895020 543.544861,483.678558 
	C544.155945,482.256195 544.887939,481.116364 545.619873,479.976562 
z"/>
<path fill="#621214" opacity="1.000000" stroke="none" 
	d="
M192.909973,369.886902 
	C189.248688,376.168549 185.320847,382.312897 181.996445,388.768066 
	C178.195129,396.149200 174.877731,403.782898 171.456345,411.354858 
	C169.903931,414.790588 167.653381,416.546936 163.675720,416.083008 
	C159.607788,415.608582 157.676132,413.049988 157.492416,409.508301 
	C157.048859,400.957336 157.051743,392.383453 156.858398,383.819153 
	C156.822464,382.227325 156.710709,380.637177 156.633926,379.046265 
	C156.182938,378.706543 155.731949,378.366791 155.280960,378.027069 
	C153.577118,379.350006 151.377045,380.346924 150.256088,382.052887 
	C145.622849,389.104218 141.283340,396.350250 136.908493,403.568726 
	C135.457245,405.963287 134.433212,408.636505 132.835831,410.917633 
	C130.982452,413.564270 129.186722,416.552063 124.875137,414.926086 
	C120.748764,413.369965 118.971642,410.552155 119.891205,406.423309 
	C122.343231,395.413605 124.530968,384.306335 127.764870,373.520020 
	C131.201736,362.056671 130.140350,350.636993 129.307281,339.120392 
	C129.188339,337.476105 128.508041,335.873352 128.380280,334.228607 
	C127.884071,327.840179 131.739304,324.605133 140.304810,324.094391 
	C144.033005,323.872101 149.384979,329.093018 148.809692,333.367706 
	C147.557190,342.674591 145.672867,351.897156 144.010925,361.147766 
	C143.355927,364.793579 140.968628,369.257477 145.740921,371.111542 
	C147.141068,371.655518 150.889343,367.950500 152.614578,365.520630 
	C157.471664,358.679779 161.953796,351.561462 166.346024,344.406586 
	C168.580002,340.767456 172.129166,338.471130 175.614395,339.556061 
	C177.686707,340.201172 179.282516,344.522705 179.848602,347.433289 
	C181.207581,354.420624 176.556503,360.542999 176.177979,367.367828 
	C175.949905,371.479919 175.712036,375.591492 175.478561,379.703278 
	C176.240265,379.897858 177.001984,380.092438 177.763687,380.287018 
	C181.930756,373.245514 186.181442,366.251831 190.244812,359.151001 
	C196.007462,349.080658 201.059509,338.574463 209.351776,330.145355 
	C211.419189,328.043823 211.381241,323.659668 216.281876,325.044250 
	C220.354370,326.194855 221.932434,329.011230 219.871674,332.772430 
	C219.152496,334.085052 218.416702,335.403229 217.542664,336.613586 
	C214.501144,340.825470 215.107849,343.748138 219.766495,346.915131 
	C223.410355,349.392334 228.012161,348.391083 230.293808,344.669342 
	C234.023163,338.586212 237.709259,332.474548 241.553665,326.464508 
	C244.861847,321.292755 250.137375,319.424347 254.187500,321.680756 
	C257.159210,323.336365 258.334778,325.358978 256.223145,328.557678 
	C254.489532,331.183685 253.111786,334.050446 251.311050,336.624969 
	C248.769028,340.259247 250.281143,343.477631 253.199020,345.074280 
	C254.426956,345.746185 258.532471,343.584320 259.593506,341.721588 
	C264.508606,333.092743 268.721344,324.067719 273.362183,315.277771 
	C278.644440,305.272980 284.153809,295.407318 296.706635,292.598846 
	C304.640045,298.533569 306.862732,308.295349 301.422211,318.463593 
	C295.872375,328.836060 289.633453,338.846649 283.512024,348.903534 
	C280.539612,353.786957 280.984161,355.971558 286.136444,358.291870 
	C290.361481,360.194611 292.890381,364.810089 291.825928,369.843964 
	C291.115906,373.201630 289.872559,376.536682 288.321533,379.605743 
	C285.846466,384.503326 285.654266,384.406189 287.969086,391.019257 
	C292.323029,386.951294 296.455261,383.090454 300.587494,379.229645 
	C301.083710,379.448792 301.579926,379.667938 302.076172,379.887115 
	C301.394592,381.975159 301.045288,384.255219 299.970276,386.115997 
	C296.484406,392.149780 292.754211,398.043304 289.075806,403.964600 
	C286.362732,408.331879 283.822571,413.384552 277.522583,412.362518 
	C272.670654,411.575409 267.283020,403.586517 266.940674,397.815613 
	C266.874146,396.694550 266.839478,395.571564 266.720123,392.857239 
	C263.848694,394.444489 261.645386,395.374023 259.791840,396.768463 
	C257.949158,398.154633 256.371216,399.931763 254.835739,401.676971 
	C253.085938,403.665833 251.405838,404.293091 248.758865,403.034668 
	C244.707809,401.108795 241.357269,401.928101 238.494843,405.915833 
	C233.366669,413.060120 227.775528,419.872131 222.504654,426.659760 
	C214.604233,425.098450 210.572281,420.990234 210.103790,413.487427 
	C209.741974,407.693451 207.526581,404.133087 201.797409,401.995026 
	C194.259918,399.182098 191.304642,391.560181 193.604889,383.407074 
	C194.503922,380.220520 195.363647,377.022949 196.525986,373.294342 
	C202.469742,369.109528 202.424393,367.107330 196.198639,362.135010 
	C195.070267,364.794769 193.990128,367.340820 192.909973,369.886902 
M240.942917,359.905609 
	C240.942917,359.905609 240.855896,359.939423 240.262009,359.825195 
	C238.981506,359.246460 237.700989,358.667725 235.245850,357.558105 
	C230.575531,370.298218 226.028473,382.624420 221.547241,394.974548 
	C220.231461,398.600830 223.855240,398.158844 225.566086,400.292206 
	C225.673508,400.875336 225.780945,401.458435 225.480911,402.346832 
	C225.226334,402.971710 224.971771,403.596588 224.717209,404.221497 
	C224.973969,404.294525 225.230728,404.367554 225.487488,404.440582 
	C225.650192,403.652100 225.812897,402.863586 226.550262,402.431305 
	C226.965637,403.459991 227.381012,404.488708 227.919266,405.821747 
	C229.319534,405.075470 230.823349,404.751404 231.536163,403.821167 
	C239.733429,393.123413 249.421280,383.402863 250.793823,368.695129 
	C251.251602,363.789703 251.274155,359.960022 247.340851,356.105682 
	C243.327988,354.095673 241.827850,356.416260 240.942917,359.905609 
M204.768341,385.525116 
	C204.371246,387.536713 203.974152,389.548309 203.577057,391.559906 
	C204.096420,391.784180 204.615768,392.008453 205.135132,392.232727 
	C207.076721,390.793152 209.018311,389.353577 211.116776,387.227295 
	C211.656723,386.475098 212.130630,385.663330 212.746979,384.980042 
	C218.067932,379.081024 221.661896,372.363617 221.908447,364.294739 
	C221.959366,362.628113 220.791183,359.609039 219.911285,359.503906 
	C218.100388,359.287598 215.020386,360.093719 214.383728,361.408997 
	C212.283997,365.746826 205.890839,368.416229 208.763992,374.899811 
	C209.082489,375.618500 207.987350,376.944519 207.588455,378.004150 
	C206.726959,380.292664 205.891861,382.591064 204.768341,385.525116 
M277.336304,327.826691 
	C274.183044,334.364685 271.029755,340.902649 267.876465,347.440613 
	C268.359955,347.669312 268.843414,347.898010 269.326874,348.126709 
	C274.826996,345.635498 279.985779,342.876862 278.339569,334.950378 
	C279.922913,335.847809 280.836426,336.814453 281.508362,336.668549 
	C284.382233,336.044495 287.283508,327.466034 285.175537,325.263153 
	C282.961273,322.949188 283.992981,321.461456 285.605072,319.790619 
	C290.373138,314.848755 290.384033,314.859253 287.224152,307.504395 
	C283.879272,314.377380 280.770050,320.766235 277.336304,327.826691 
z"/>
<path fill="#32160F" opacity="1.000000" stroke="none" 
	d="
M372.995911,284.906006 
	C376.364807,265.585114 383.590698,248.314514 396.214233,233.830261 
	C400.926300,228.423615 407.156586,224.036789 413.365021,220.298279 
	C428.139740,211.401428 444.089020,205.172226 461.263062,202.767548 
	C478.440063,200.362457 495.467529,200.515778 512.626526,204.444229 
	C525.113281,207.302979 535.800354,213.235748 546.565430,219.490021 
	C549.556152,221.227570 550.256958,223.472122 549.159912,226.609711 
	C547.298828,231.932358 545.628113,237.323959 543.652710,242.602524 
	C543.124329,244.014511 541.997314,245.600677 540.724670,246.174484 
	C540.049316,246.478989 538.272034,244.970734 537.332703,243.963303 
	C524.958008,230.690933 509.005249,225.001846 491.593231,223.107300 
	C483.228882,222.197220 474.655762,222.363892 466.239594,222.945679 
	C448.372284,224.180801 432.435089,230.779816 418.032135,241.417221 
	C399.295227,255.255539 391.617981,274.483887 390.385925,296.946442 
	C389.951752,304.862030 389.730194,305.079254 382.095032,304.324951 
	C380.383759,304.155884 378.495941,304.642700 376.841980,305.245972 
	C372.590393,306.796844 370.617920,305.924927 370.809357,301.398193 
	C371.036774,296.020538 372.199738,290.682434 372.995911,284.906006 
z"/>
<path fill="#6B1B1F" opacity="1.000000" stroke="none" 
	d="
M258.000336,472.089966 
	C265.172424,471.697937 272.395752,471.680664 279.488800,470.710632 
	C281.972015,470.371002 284.849182,468.167511 286.314728,465.987244 
	C291.493683,458.282593 297.684601,458.045929 303.197296,465.606995 
	C304.599274,467.529907 306.745483,468.910156 308.633606,470.882874 
	C308.990845,471.923553 309.264252,472.621063 309.537689,473.318604 
	C310.350861,472.603363 311.164001,471.888123 311.977173,471.172852 
	C313.464661,471.243225 314.952209,471.313599 316.986053,471.480957 
	C319.353485,473.053925 321.174622,474.529846 323.188660,476.094971 
	C323.922455,476.124420 324.463348,476.064728 325.403748,476.004272 
	C326.868622,476.005188 327.933929,476.006897 329.151093,476.261963 
	C329.731506,479.510986 324.135895,483.849762 320.840942,483.216949 
	C318.634583,482.793182 316.371338,482.665619 314.009216,482.391022 
	C312.728424,481.592102 311.230835,479.957123 309.566559,479.764923 
	C306.035797,479.357025 303.401123,478.696228 303.342865,474.364044 
	C303.332794,473.616516 301.919708,472.683899 300.971161,472.187744 
	C296.477966,469.837433 292.772400,470.723419 289.743744,474.918610 
	C287.249237,478.373871 283.807861,479.041565 279.357239,476.773560 
	C281.980530,475.126770 284.603790,473.480011 287.227081,471.833252 
	C280.922333,472.826294 274.119904,472.595062 271.234314,479.796234 
	C270.939331,480.532440 268.327606,481.233826 267.616943,480.746552 
	C265.245758,479.120850 263.112457,478.826965 261.688599,481.378448 
	C260.654877,483.230835 259.533295,486.100891 260.290955,487.564758 
	C260.953644,488.845032 264.167358,488.870178 266.281738,489.319885 
	C270.511505,490.219574 274.760193,491.030334 279.001068,491.877838 
	C270.303375,491.729004 261.603394,491.651489 252.909958,491.370789 
	C251.180008,491.314941 249.475174,490.481323 247.369171,489.571777 
	C246.521515,487.833649 246.063431,486.530121 245.605362,485.226562 
	C245.045975,485.871704 244.486588,486.516846 243.927216,487.161987 
	C243.258789,485.430908 242.590363,483.699829 241.615906,481.176208 
	C236.138901,478.870605 230.915466,480.817993 226.497696,485.584259 
	C222.291367,490.122375 217.483536,493.442841 211.127563,493.809723 
	C205.377426,494.141602 201.293976,491.507568 200.917038,487.444763 
	C200.507187,483.027161 203.312653,480.133392 209.237061,478.862946 
	C202.940216,474.915527 201.257095,465.285797 206.648895,460.317749 
	C209.774765,457.437531 213.968307,455.124359 218.073639,454.037048 
	C224.285019,452.391907 230.814301,451.758026 237.252335,451.202179 
	C246.717239,450.384949 254.432922,456.771423 256.031006,466.220398 
	C256.305908,467.845825 256.702606,469.450653 256.977905,471.685242 
	C257.047668,472.765137 257.182556,473.224731 257.317444,473.684357 
	C257.545074,473.152893 257.772705,472.621429 258.000336,472.089966 
M218.838867,471.507385 
	C219.829956,472.064606 221.552872,473.255981 221.702148,473.083710 
	C223.873230,470.578186 226.354538,468.125610 227.688370,465.175110 
	C228.867203,462.567474 227.219193,460.971893 224.044540,461.176361 
	C219.511337,461.468353 216.911606,463.934296 215.687729,466.880371 
	C216.837662,468.570160 217.646957,469.759399 218.838867,471.507385 
M219.965240,479.541870 
	C220.084915,478.377136 220.204590,477.212402 220.337296,475.920807 
	C213.277924,477.382782 212.047577,479.490814 216.895752,485.639221 
	C217.948898,483.657196 218.864395,481.934204 219.965240,479.541870 
M249.601089,482.158112 
	C252.367905,481.913574 252.996140,480.316772 251.616333,478.221405 
	C251.112778,477.456787 249.482651,477.434052 248.366501,477.072876 
	C248.584946,478.697906 248.803391,480.322968 249.601089,482.158112 
M252.923615,487.045685 
	C254.032806,488.204681 255.141983,489.363708 256.251160,490.522705 
	C256.711365,490.123413 257.171600,489.724121 257.631805,489.324829 
	C256.409210,487.905731 255.186600,486.486664 253.964035,485.067566 
	C253.546860,485.550812 253.129684,486.034058 252.923615,487.045685 
M297.246368,463.943024 
	C296.674072,465.106781 296.101776,466.270538 295.529480,467.434296 
	C296.269928,467.604431 297.010406,467.774567 297.750885,467.944702 
	C297.750885,466.681183 297.750885,465.417633 297.246368,463.943024 
M269.116455,474.870453 
	C269.290100,475.032135 269.463715,475.193848 269.637390,475.355560 
	C269.726440,475.252716 269.815460,475.149872 269.904449,475.046997 
	C269.697449,474.925934 269.490448,474.804871 269.116455,474.870453 
z"/>
<path fill="#6E1E22" opacity="1.000000" stroke="none" 
	d="
M378.976105,452.998169 
	C385.613525,455.122253 392.168945,457.578522 398.919312,459.245178 
	C402.937622,460.237335 407.262421,459.988098 412.015686,460.373962 
	C415.271881,461.613129 415.901459,463.479645 414.545929,466.071075 
	C413.544098,467.986298 412.406250,469.860413 411.678619,471.878906 
	C411.155670,473.329712 410.532959,475.453125 411.198578,476.422089 
	C411.848236,477.367828 414.066589,477.425751 415.615265,477.505615 
	C416.912292,477.572510 418.628357,477.535614 419.454437,476.777313 
	C420.606812,475.719513 421.806183,473.915131 421.741425,472.486633 
	C421.580322,468.935608 420.714874,465.416473 420.132263,461.884552 
	C422.856323,468.319885 426.052063,474.615326 428.026337,481.272980 
	C428.644714,483.358215 426.669189,487.342407 424.669250,488.850281 
	C419.799805,492.521820 414.111542,494.268250 407.845245,491.801849 
	C406.199310,491.154022 404.273956,491.065186 402.467285,491.003845 
	C396.244873,490.792694 395.849762,490.305847 395.475067,484.144989 
	C395.359711,482.248810 394.260376,480.412445 393.611633,478.548706 
	C391.545074,479.674011 389.112976,480.422668 387.486237,482.001221 
	C383.830048,485.549255 381.154602,490.374390 377.043060,493.135895 
	C365.573456,500.839508 356.680542,500.484833 348.184906,489.725861 
	C343.406067,483.673889 347.056885,474.263641 355.177399,472.212280 
	C355.003662,474.230591 355.067566,476.153870 354.639526,477.960602 
	C353.356384,483.376678 355.788849,487.669952 361.233215,489.234375 
	C366.895630,490.861511 372.910980,488.341187 373.854462,483.077179 
	C374.219116,481.042694 371.991730,478.231873 370.357178,476.262909 
	C369.305786,474.996429 367.199310,474.582275 365.537506,473.850189 
	C357.821991,470.450867 356.861664,467.984192 360.900696,460.231689 
	C370.529022,463.942108 375.683289,461.815979 378.976105,452.998169 
M376.371368,463.957642 
	C377.123352,465.636566 377.471130,468.119141 378.745239,468.759949 
	C379.930847,469.356262 382.103149,467.990845 383.841034,467.489075 
	C383.825806,466.688324 383.810547,465.887573 383.795288,465.086853 
	C381.504517,464.525452 379.213715,463.964081 376.371368,463.957642 
z"/>
<path fill="#6E1E23" opacity="1.000000" stroke="none" 
	d="
M493.417175,488.388611 
	C487.564362,494.101501 482.158325,499.811829 476.064453,504.657013 
	C474.476227,505.919830 470.356049,505.253418 468.089722,504.107056 
	C464.878265,502.482635 464.909210,499.068176 466.277344,495.853638 
	C466.589233,495.120819 466.822266,494.354401 467.549774,492.325562 
	C459.033112,491.954712 451.170166,491.492828 443.300659,491.306519 
	C436.677673,491.149658 433.812653,488.266174 434.314026,481.767975 
	C434.867523,474.593353 439.054077,470.966980 445.270782,471.538391 
	C451.035614,472.068237 456.891052,472.298859 462.648285,471.873047 
	C464.829956,471.711700 467.120972,469.622528 468.858215,467.902954 
	C470.326385,466.449707 470.633453,463.604065 472.230164,462.550995 
	C474.669189,460.942474 477.772369,459.695099 480.602264,459.677399 
	C481.585724,459.671265 483.279755,463.724670 483.442993,466.010193 
	C483.739380,470.160278 484.748322,472.373077 489.539215,472.185608 
	C493.387756,472.034943 496.893890,479.815186 495.402435,484.515900 
	C495.006866,485.762695 494.216431,486.884216 493.417175,488.388611 
z"/>
<path fill="#D72D42" opacity="1.000000" stroke="none" 
	d="
M545.512695,479.658997 
	C544.887939,481.116364 544.155945,482.256195 543.443848,483.332733 
	C542.986084,482.950012 542.508545,482.630585 542.031006,482.311157 
	C541.858704,482.701538 541.686340,483.091919 541.513977,483.482269 
	C541.513977,483.482269 541.587708,483.034332 541.369263,482.975769 
	C537.478088,485.697113 534.000916,488.813477 530.047852,491.111176 
	C528.147278,492.215851 524.917114,492.727631 523.029541,491.872803 
	C513.811584,487.698120 507.271423,480.243317 502.567505,471.648987 
	C499.483887,466.015045 501.276947,459.748596 505.307159,454.673645 
	C508.128387,451.121124 515.924622,450.255188 521.319092,452.564606 
	C523.808411,453.630310 525.987671,453.620239 528.548157,452.305145 
	C537.745117,447.581604 549.383728,455.031860 548.135620,464.014954 
	C547.421997,469.151062 546.328186,474.234375 545.512695,479.658997 
z"/>
<path fill="#701E22" opacity="1.000000" stroke="none" 
	d="
M279.452515,491.875000 
	C274.760193,491.030334 270.511505,490.219574 266.281738,489.319885 
	C264.167358,488.870178 260.953644,488.845032 260.290955,487.564758 
	C259.533295,486.100891 260.654877,483.230835 261.688599,481.378448 
	C263.112457,478.826965 265.245758,479.120850 267.616943,480.746552 
	C268.327606,481.233826 270.939331,480.532440 271.234314,479.796234 
	C274.119904,472.595062 280.922333,472.826294 287.227081,471.833252 
	C284.603790,473.480011 281.980530,475.126770 279.357239,476.773560 
	C283.807861,479.041565 287.249237,478.373871 289.743744,474.918610 
	C292.772400,470.723419 296.477966,469.837433 300.971161,472.187744 
	C301.919708,472.683899 303.332794,473.616516 303.342865,474.364044 
	C303.401123,478.696228 306.035797,479.357025 309.566559,479.764923 
	C311.230835,479.957123 312.728424,481.592102 314.009216,482.391022 
	C316.371338,482.665619 318.634583,482.793182 320.840942,483.216949 
	C324.135895,483.849762 329.731506,479.510986 329.412109,476.182312 
	C330.780426,477.795166 332.271027,479.634216 333.231903,481.717590 
	C334.147461,483.702484 334.510315,485.942383 335.116180,488.070160 
	C335.050781,488.227264 334.985352,488.384369 334.523621,488.825378 
	C333.424835,489.642365 332.722382,490.175476 332.019928,490.708588 
	C322.065613,490.993835 312.112274,491.320282 302.156708,491.550659 
	C294.740601,491.722290 287.321655,491.769501 279.452515,491.875000 
z"/>
<path fill="#6C242B" opacity="1.000000" stroke="none" 
	d="
M335.467896,488.002899 
	C334.510315,485.942383 334.147461,483.702484 333.231903,481.717590 
	C332.271027,479.634216 330.780426,477.795166 329.260315,475.928986 
	C327.933929,476.006897 326.868622,476.005188 325.211304,475.912659 
	C324.078094,475.883179 323.536926,475.944489 322.995728,476.005798 
	C321.174622,474.529846 319.353485,473.053925 317.300415,471.365234 
	C324.282990,472.941437 329.034729,470.964630 331.954193,463.455353 
	C333.725006,458.900452 338.307434,457.940094 341.398926,459.933716 
	C345.616333,462.653473 344.573700,466.062012 343.031982,469.965942 
	C341.550354,473.717651 341.209686,477.910309 339.840088,481.719513 
	C339.026917,483.981049 337.194031,485.875916 335.467896,488.002899 
z"/>
<path fill="#6C242B" opacity="1.000000" stroke="none" 
	d="
M408.806702,314.433472 
	C410.608704,314.194519 412.184998,314.194519 413.922607,314.194519 
	C410.798706,319.319092 407.595215,324.372742 404.606445,329.550354 
	C402.717651,332.822418 401.313751,336.378906 399.361572,339.607880 
	C398.505066,341.024506 396.823517,341.942322 395.262054,343.039124 
	C397.236908,332.451874 402.106903,323.177734 408.806702,314.433472 
z"/>
<path fill="#6C242B" opacity="1.000000" stroke="none" 
	d="
M419.921844,461.557190 
	C420.714874,465.416473 421.580322,468.935608 421.741425,472.486633 
	C421.806183,473.915131 420.606812,475.719513 419.454437,476.777313 
	C418.628357,477.535614 416.912292,477.572510 415.615265,477.505615 
	C414.066589,477.425751 411.848236,477.367828 411.198578,476.422089 
	C410.532959,475.453125 411.155670,473.329712 411.678619,471.878906 
	C412.406250,469.860413 413.544098,467.986298 414.545929,466.071075 
	C415.901459,463.479645 415.271881,461.613129 412.326721,460.267853 
	C414.618134,460.466431 417.164795,460.848145 419.921844,461.557190 
z"/>
<path fill="#67161A" opacity="1.000000" stroke="none" 
	d="
M378.700623,452.772552 
	C375.683289,461.815979 370.529022,463.942108 361.195435,460.029388 
	C364.442993,453.744385 373.067047,450.151611 378.700623,452.772552 
z"/>
<path fill="#780000" opacity="1.000000" stroke="none" 
	d="
M193.039917,370.198151 
	C193.990128,367.340820 195.070267,364.794769 196.198639,362.135010 
	C202.424393,367.107330 202.469742,369.109528 196.522491,372.883972 
	C195.212799,372.176208 194.191330,371.342804 193.039917,370.198151 
z"/>
<path fill="#701E22" opacity="1.000000" stroke="none" 
	d="
M244.085602,487.414764 
	C244.486588,486.516846 245.045975,485.871704 245.605362,485.226562 
	C246.063431,486.530121 246.521515,487.833649 246.984055,489.498047 
	C246.073685,489.128418 245.158844,488.397980 244.085602,487.414764 
z"/>
<path fill="#6C242B" opacity="1.000000" stroke="none" 
	d="
M311.619873,471.099365 
	C311.164001,471.888123 310.350861,472.603363 309.537689,473.318604 
	C309.264252,472.621063 308.990845,471.923553 308.895996,471.099976 
	C309.803864,470.991211 310.533234,471.008545 311.619873,471.099365 
z"/>
<path fill="#701E22" opacity="1.000000" stroke="none" 
	d="
M257.764832,472.039734 
	C257.772705,472.621429 257.545074,473.152893 257.317444,473.684357 
	C257.182556,473.224731 257.047668,472.765137 256.986206,472.094482 
	C257.059601,471.883453 257.529358,471.989471 257.764832,472.039734 
z"/>
<path fill="#6C242B" opacity="1.000000" stroke="none" 
	d="
M332.305664,490.729156 
	C332.722382,490.175476 333.424835,489.642365 334.394592,489.045654 
	C333.971741,489.571289 333.281555,490.160522 332.305664,490.729156 
z"/>
<path fill="#020000" opacity="1.000000" stroke="none" 
	d="
M341.899170,373.080505 
	C345.843933,364.641724 349.437592,356.452179 353.598785,348.561890 
	C355.571320,344.821533 358.295837,341.311035 361.328857,338.364655 
	C362.924164,336.814880 367.122803,335.383118 368.033600,336.213867 
	C370.045929,338.049377 372.021423,341.547272 371.649200,344.009918 
	C371.029572,348.109802 369.063171,352.259064 366.762817,355.802643 
	C360.816315,364.962860 354.469116,373.869904 348.052246,382.711365 
	C346.886230,384.317963 344.631714,385.134583 342.879700,386.315918 
	C341.909210,384.083710 340.386810,381.911194 340.136993,379.601074 
	C339.924316,377.633789 341.176666,375.508148 341.899170,373.080505 
z"/>
<path fill="#030000" opacity="1.000000" stroke="none" 
	d="
M381.132935,381.506714 
	C379.887817,388.190369 378.919250,394.606018 377.096588,400.769043 
	C376.520721,402.716248 373.660370,403.987823 371.845490,405.568604 
	C371.093658,403.582825 369.389282,401.402771 369.748138,399.643555 
	C371.730591,389.925140 374.129486,380.287384 376.569489,370.668610 
	C377.625793,366.504517 379.039795,362.423096 380.463684,358.364624 
	C380.965851,356.933380 381.981445,355.682251 382.806152,354.274536 
	C385.929413,355.973969 387.421967,357.210022 385.556915,360.708344 
	C382.201599,367.002167 380.741119,373.928070 381.132935,381.506714 
z"/>
<path fill="#621D20" opacity="1.000000" stroke="none" 
	d="
M468.017212,316.014465 
	C467.710541,317.100372 467.403900,318.186279 466.815521,319.850159 
	C462.657227,327.941650 458.780609,335.455231 454.903961,342.968811 
	C453.283661,344.534912 451.663391,346.101044 450.043091,347.667206 
	C449.702698,347.541718 449.362305,347.416229 449.021912,347.290741 
	C449.928894,344.441254 450.536896,341.451111 451.799103,338.768768 
	C455.526733,330.847107 459.368164,322.969147 463.516754,315.263458 
	C464.377502,313.664642 466.753510,312.881592 468.680573,312.208313 
	C468.625702,313.800842 468.321472,314.907654 468.017212,316.014465 
z"/>
<path fill="#020000" opacity="1.000000" stroke="none" 
	d="
M422.457977,332.985748 
	C420.590607,336.243652 419.032227,339.749481 416.710632,342.642944 
	C415.719971,343.877625 413.135956,343.833893 411.276001,344.371155 
	C411.165375,342.764435 410.532654,340.968079 411.035431,339.584198 
	C413.093842,333.918396 415.498657,328.378448 418.283142,322.496643 
	C422.984070,324.785583 420.875244,329.513367 422.457977,332.985748 
z"/>
<path fill="#621D20" opacity="1.000000" stroke="none" 
	d="
M515.340088,390.287354 
	C518.169800,387.517212 520.676270,384.924927 523.302185,382.459717 
	C524.564758,381.274384 526.052551,380.328949 527.771912,379.705109 
	C525.027649,391.734100 513.988586,397.209930 508.227600,407.016907 
	C505.770142,402.994171 508.438049,397.075195 515.340088,390.287354 
M516.478027,393.508789 
	C516.478027,393.508789 516.513000,393.499023 516.478027,393.508789 
z"/>
<path fill="#551415" opacity="1.000000" stroke="none" 
	d="
M455.260376,342.912109 
	C458.780609,335.455231 462.657227,327.941650 466.777435,320.188049 
	C467.384521,322.416626 468.922394,325.655273 467.899719,327.215057 
	C464.278229,332.738525 459.781647,337.688232 455.260376,342.912109 
z"/>
<path fill="#030000" opacity="1.000000" stroke="none" 
	d="
M406.928406,383.781067 
	C408.611511,383.523590 409.963409,383.423462 411.523285,383.307953 
	C409.510376,392.032135 406.826782,395.744476 400.317200,398.735809 
	C399.587830,392.356262 402.984222,388.105011 406.928406,383.781067 
z"/>
<path fill="#5E0007" opacity="1.000000" stroke="none" 
	d="
M422.689606,332.733582 
	C420.875244,329.513367 422.984070,324.785583 418.406250,322.177338 
	C418.759735,317.140564 418.804230,317.078583 423.916412,314.878784 
	C423.568329,321.035645 423.244781,326.758545 422.689606,332.733582 
z"/>
<path fill="#551415" opacity="1.000000" stroke="none" 
	d="
M468.359985,315.979187 
	C468.321472,314.907654 468.625702,313.800842 468.971466,312.351501 
	C469.797119,312.636475 470.581268,313.263947 471.365417,313.891479 
	C470.477844,314.575623 469.590271,315.259766 468.359985,315.979187 
z"/>
<path fill="#000000" opacity="1.000000" stroke="none" 
	d="
M542.047363,483.622559 
	C541.686340,483.091919 541.858704,482.701538 542.031006,482.311157 
	C542.508545,482.630585 542.986084,482.950012 543.564697,483.615265 
	C543.304016,483.895020 542.942383,483.828918 542.047363,483.622559 
z"/>
<path fill="#020000" opacity="1.000000" stroke="none" 
	d="
M225.888367,402.041565 
	C225.780945,401.458435 225.673508,400.875336 225.562561,399.495758 
	C228.368652,384.875854 234.316864,372.291046 240.855896,359.939423 
	C240.855896,359.939423 240.942917,359.905609 241.229111,359.667389 
	C243.577133,358.461151 245.638962,357.493134 247.700775,356.525146 
	C251.274155,359.960022 251.251602,363.789703 250.793823,368.695129 
	C249.421280,383.402863 239.733429,393.123413 231.536163,403.821167 
	C230.823349,404.751404 229.319534,405.075470 227.919266,405.821747 
	C227.381012,404.488708 226.965637,403.459991 226.248566,402.225555 
	C225.946884,402.019806 225.888367,402.041565 225.888367,402.041565 
z"/>
<path fill="#020000" opacity="1.000000" stroke="none" 
	d="
M205.045944,384.885437 
	C205.891861,382.591064 206.726959,380.292664 207.588455,378.004150 
	C207.987350,376.944519 209.082489,375.618500 208.763992,374.899811 
	C205.890839,368.416229 212.283997,365.746826 214.383728,361.408997 
	C215.020386,360.093719 218.100388,359.287598 219.911285,359.503906 
	C220.791183,359.609039 221.959366,362.628113 221.908447,364.294739 
	C221.661896,372.363617 218.067932,379.081024 212.746979,384.980042 
	C212.130630,385.663330 211.656723,386.475098 210.682251,387.590363 
	C208.513809,386.930756 206.779877,385.908112 205.045944,384.885437 
z"/>
<path fill="#621D20" opacity="1.000000" stroke="none" 
	d="
M277.498566,327.490875 
	C280.770050,320.766235 283.879272,314.377380 287.224152,307.504395 
	C290.384033,314.859253 290.373138,314.848755 285.605072,319.790619 
	C283.992981,321.461456 282.961273,322.949188 285.175537,325.263153 
	C287.283508,327.466034 284.382233,336.044495 281.508362,336.668549 
	C280.836426,336.814453 279.922913,335.847809 278.339569,334.950378 
	C279.985779,342.876862 274.826996,345.635498 269.326874,348.126709 
	C268.843414,347.898010 268.359955,347.669312 267.876465,347.440613 
	C271.029755,340.902649 274.183044,334.364685 277.498566,327.490875 
z"/>
<path fill="#661F21" opacity="1.000000" stroke="none" 
	d="
M240.558960,359.882324 
	C234.316864,372.291046 228.368652,384.875854 225.481110,399.058563 
	C223.855240,398.158844 220.231461,398.600830 221.547241,394.974548 
	C226.028473,382.624420 230.575531,370.298218 235.245850,357.558105 
	C237.700989,358.667725 238.981506,359.246460 240.558960,359.882324 
z"/>
<path fill="#5E0007" opacity="1.000000" stroke="none" 
	d="
M204.907135,385.205261 
	C206.779877,385.908112 208.513809,386.930756 210.603821,387.933716 
	C209.018311,389.353577 207.076721,390.793152 205.135132,392.232727 
	C204.615768,392.008453 204.096420,391.784180 203.577057,391.559906 
	C203.974152,389.548309 204.371246,387.536713 204.907135,385.205261 
z"/>
<path fill="#661F21" opacity="1.000000" stroke="none" 
	d="
M247.520813,356.315399 
	C245.638962,357.493134 243.577133,358.461151 241.233612,359.620911 
	C241.827850,356.416260 243.327988,354.095673 247.520813,356.315399 
z"/>
<path fill="#661F21" opacity="1.000000" stroke="none" 
	d="
M225.961243,402.047455 
	C225.812897,402.863586 225.650192,403.652100 225.487488,404.440582 
	C225.230728,404.367554 224.973969,404.294525 224.717209,404.221497 
	C224.971771,403.596588 225.226334,402.971710 225.684631,402.194214 
	C225.888367,402.041565 225.946884,402.019806 225.961243,402.047455 
z"/>
<path fill="#030000" opacity="1.000000" stroke="none" 
	d="
M218.647552,471.227997 
	C217.646957,469.759399 216.837662,468.570160 215.687729,466.880371 
	C216.911606,463.934296 219.511337,461.468353 224.044540,461.176361 
	C227.219193,460.971893 228.867203,462.567474 227.688370,465.175110 
	C226.354538,468.125610 223.873230,470.578186 221.702148,473.083710 
	C221.552872,473.255981 219.829956,472.064606 218.647552,471.227997 
z"/>
<path fill="#000000" opacity="1.000000" stroke="none" 
	d="
M219.872559,479.876556 
	C218.864395,481.934204 217.948898,483.657196 216.895752,485.639221 
	C212.047577,479.490814 213.277924,477.382782 220.337296,475.920807 
	C220.204590,477.212402 220.084915,478.377136 219.872559,479.876556 
z"/>
<path fill="#701E22" opacity="1.000000" stroke="none" 
	d="
M249.311462,482.053040 
	C248.803391,480.322968 248.584946,478.697906 248.366501,477.072876 
	C249.482651,477.434052 251.112778,477.456787 251.616333,478.221405 
	C252.996140,480.316772 252.367905,481.913574 249.311462,482.053040 
z"/>
<path fill="#701E22" opacity="1.000000" stroke="none" 
	d="
M252.818054,486.781494 
	C253.129684,486.034058 253.546860,485.550812 253.964020,485.067566 
	C255.186600,486.486664 256.409210,487.905731 257.631805,489.324829 
	C257.171600,489.724121 256.711365,490.123413 256.251160,490.522705 
	C255.141983,489.363708 254.032806,488.204681 252.818054,486.781494 
z"/>
<path fill="#701E22" opacity="1.000000" stroke="none" 
	d="
M297.498627,464.048584 
	C297.750885,465.417633 297.750885,466.681183 297.750885,467.944702 
	C297.010406,467.774567 296.269928,467.604431 295.529480,467.434296 
	C296.101776,466.270538 296.674072,465.106781 297.498627,464.048584 
z"/>
<path fill="#701E22" opacity="1.000000" stroke="none" 
	d="
M269.199951,474.777130 
	C269.490448,474.804871 269.697449,474.925934 269.904480,475.046997 
	C269.815460,475.149872 269.726440,475.252716 269.637390,475.355530 
	C269.463715,475.193848 269.290100,475.032135 269.199951,474.777130 
z"/>
<path fill="#701E22" opacity="1.000000" stroke="none" 
	d="
M323.188660,476.094940 
	C323.536926,475.944489 324.078094,475.883179 324.811768,475.913452 
	C324.463348,476.064728 323.922455,476.124420 323.188660,476.094940 
z"/>
<path fill="#030000" opacity="1.000000" stroke="none" 
	d="
M376.647156,463.680176 
	C379.213715,463.964081 381.504517,464.525452 383.795288,465.086853 
	C383.810547,465.887573 383.825806,466.688324 383.841034,467.489075 
	C382.103149,467.990845 379.930847,469.356262 378.745239,468.759949 
	C377.471130,468.119141 377.123352,465.636566 376.647156,463.680176 
z"/>
<path fill="#621314" opacity="1.000000" stroke="none" 
	d="
M516.495483,393.503906 
	C516.513000,393.499023 516.478027,393.508789 516.495483,393.503906 
z"/>
</svg>